<mxfile host="app.diagrams.net" modified="2024-02-22T11:49:54.997Z" agent="Mozilla/5.0 (Macintosh; Intel Mac OS X 10_15_7) AppleWebKit/537.36 (KHTML, like Gecko) Chrome/121.0.0.0 Safari/537.36" version="22.1.16" etag="Yy8Rd_HtDLUfJWOnYt5o" type="github">
  <diagram name="Page-1" id="drPFpuZdTpabFgbBmB6Z">
    <mxGraphModel>
      <root>
        <mxCell id="0" />
        <mxCell id="1" parent="0" />
      </root>
    </mxGraphModel>
  </diagram>
</mxfile>
